<svg width="35" height="28" viewBox="0 0 35 28" fill="none" xmlns="http://www.w3.org/2000/svg">
<path d="M29.6144 3.02581C27.3977 1.99245 24.9976 1.24243 22.4976 0.809082C22.4536 0.809708 22.4117 0.827681 22.3809 0.859084C22.0809 1.4091 21.7309 2.12578 21.4975 2.6758C18.8458 2.27604 16.1491 2.27604 13.4973 2.6758C13.264 2.10912 12.914 1.4091 12.5973 0.859084C12.5806 0.82575 12.5306 0.809082 12.4806 0.809082C9.98055 1.24243 7.59715 1.99245 5.36375 3.02581C5.34709 3.02581 5.33042 3.04248 5.31375 3.05914C0.780295 9.84266 -0.469739 16.4428 0.146944 22.9764C0.146944 23.0097 0.163611 23.043 0.196946 23.0597C3.19703 25.2598 6.08044 26.5931 8.93052 27.4765C8.98052 27.4931 9.03052 27.4765 9.04719 27.4431C9.71387 26.5265 10.3139 25.5598 10.8306 24.5431C10.8639 24.4764 10.8306 24.4097 10.7639 24.3931C9.81388 24.0264 8.91385 23.593 8.03049 23.093C7.96383 23.0597 7.96383 22.9597 8.01383 22.9097C8.19717 22.7764 8.3805 22.6263 8.56384 22.493C8.59718 22.4597 8.64718 22.4597 8.68051 22.4763C14.414 25.0931 20.5975 25.0931 26.2643 22.4763C26.2977 22.4597 26.3477 22.4597 26.381 22.493C26.5643 22.643 26.7477 22.7764 26.931 22.9264C26.9977 22.9764 26.9977 23.0764 26.9143 23.1097C26.0477 23.6264 25.131 24.0431 24.1809 24.4097C24.1143 24.4264 24.0976 24.5097 24.1143 24.5597C24.6476 25.5764 25.2476 26.5431 25.8977 27.4598C25.9477 27.4765 25.9977 27.4931 26.0477 27.4765C28.9144 26.5931 31.7978 25.2598 34.7979 23.0597C34.8312 23.043 34.8479 23.0097 34.8479 22.9764C35.5812 15.4261 33.6312 8.87597 29.6811 3.05914C29.6644 3.04248 29.6478 3.02581 29.6144 3.02581ZM11.6973 18.9929C9.98055 18.9929 8.54718 17.4095 8.54718 15.4595C8.54718 13.5094 9.94721 11.9261 11.6973 11.9261C13.464 11.9261 14.864 13.5261 14.8473 15.4595C14.8473 17.4095 13.4473 18.9929 11.6973 18.9929ZM23.3142 18.9929C21.5975 18.9929 20.1642 17.4095 20.1642 15.4595C20.1642 13.5094 21.5642 11.9261 23.3142 11.9261C25.081 11.9261 26.481 13.5261 26.4643 15.4595C26.4643 17.4095 25.081 18.9929 23.3142 18.9929Z" fill="#353B35"/>
</svg>
