<svg width="35" height="36" viewBox="0 0 35 36" fill="none" xmlns="http://www.w3.org/2000/svg">
<path d="M10.15 0.5H24.85C30.45 0.5 35 5.05 35 10.65V25.35C35 28.0419 33.9306 30.6236 32.0271 32.5271C30.1236 34.4306 27.5419 35.5 24.85 35.5H10.15C4.55 35.5 0 30.95 0 25.35V10.65C0 7.95805 1.06937 5.37636 2.97287 3.47287C4.87636 1.56937 7.45805 0.5 10.15 0.5ZM9.8 4C8.12914 4 6.52671 4.66375 5.34523 5.84523C4.16375 7.02671 3.5 8.62914 3.5 10.3V25.7C3.5 29.1825 6.3175 32 9.8 32H25.2C26.8709 32 28.4733 31.3363 29.6548 30.1548C30.8363 28.9733 31.5 27.3709 31.5 25.7V10.3C31.5 6.8175 28.6825 4 25.2 4H9.8ZM26.6875 6.625C27.2677 6.625 27.8241 6.85547 28.2343 7.2657C28.6445 7.67594 28.875 8.23234 28.875 8.8125C28.875 9.39266 28.6445 9.94906 28.2343 10.3593C27.8241 10.7695 27.2677 11 26.6875 11C26.1073 11 25.5509 10.7695 25.1407 10.3593C24.7305 9.94906 24.5 9.39266 24.5 8.8125C24.5 8.23234 24.7305 7.67594 25.1407 7.2657C25.5509 6.85547 26.1073 6.625 26.6875 6.625ZM17.5 9.25C19.8206 9.25 22.0462 10.1719 23.6872 11.8128C25.3281 13.4538 26.25 15.6794 26.25 18C26.25 20.3206 25.3281 22.5462 23.6872 24.1872C22.0462 25.8281 19.8206 26.75 17.5 26.75C15.1794 26.75 12.9538 25.8281 11.3128 24.1872C9.67187 22.5462 8.75 20.3206 8.75 18C8.75 15.6794 9.67187 13.4538 11.3128 11.8128C12.9538 10.1719 15.1794 9.25 17.5 9.25ZM17.5 12.75C16.1076 12.75 14.7723 13.3031 13.7877 14.2877C12.8031 15.2723 12.25 16.6076 12.25 18C12.25 19.3924 12.8031 20.7277 13.7877 21.7123C14.7723 22.6969 16.1076 23.25 17.5 23.25C18.8924 23.25 20.2277 22.6969 21.2123 21.7123C22.1969 20.7277 22.75 19.3924 22.75 18C22.75 16.6076 22.1969 15.2723 21.2123 14.2877C20.2277 13.3031 18.8924 12.75 17.5 12.75Z" fill="#353B35"/>
</svg>
